PathFileType	4	(X/Y/Z)	C:\Users\Basilio\Documents\Thesis Gigler\squatting_fais\c3dfiles\019\SLS_front_pre4\markers_experimental.trc
DataRate	CameraRate	NumFrames	NumMarkers	Units	OrigDataRate	OrigDataStartFrame	OrigNumFrames
200.000000	200.000000	4	59	mm	200.000000	1365	1561
Frame#	Time	LBHD			RBHD			C7			T10			CLAV			LSHO			LUUPA			LMUPA			LDUPA			LLEP			LMEP			LRAD			LUL			LRFIN			RSHO			RUPA1			RMUPA			RDUPA			RLEP			RMEP			RRAD			RUL			RUFIN			LASI			RASI			USACR			LSACR			RSACR			LTHI1			LTHI2			LTHI3			LTHI4			LLFC			LTIB1			LTIB2			LTIB3			LTIB4			LLMAL			LMMAL			LHEE			LMT1			LMT2			LMT5			RTHI			RTHI2			RTHI3			RTHI4			RLFC			RTIB1			RTIB2			RTIB3			RTIB4			RLMAL			RMMAL			RHEE			RMT1			RMT2			RMT5			FHD			
		X1	Y1	Z1	X2	Y2	Z2	X3	Y3	Z3	X4	Y4	Z4	X5	Y5	Z5	X6	Y6	Z6	X7	Y7	Z7	X8	Y8	Z8	X9	Y9	Z9	X10	Y10	Z10	X11	Y11	Z11	X12	Y12	Z12	X13	Y13	Z13	X14	Y14	Z14	X15	Y15	Z15	X16	Y16	Z16	X17	Y17	Z17	X18	Y18	Z18	X19	Y19	Z19	X20	Y20	Z20	X21	Y21	Z21	X22	Y22	Z22	X23	Y23	Z23	X24	Y24	Z24	X25	Y25	Z25	X26	Y26	Z26	X27	Y27	Z27	X28	Y28	Z28	X29	Y29	Z29	X30	Y30	Z30	X31	Y31	Z31	X32	Y32	Z32	X33	Y33	Z33	X34	Y34	Z34	X35	Y35	Z35	X36	Y36	Z36	X37	Y37	Z37	X38	Y38	Z38	X39	Y39	Z39	X40	Y40	Z40	X41	Y41	Z41	X42	Y42	Z42	X43	Y43	Z43	X44	Y44	Z44	X45	Y45	Z45	X46	Y46	Z46	X47	Y47	Z47	X48	Y48	Z48	X49	Y49	Z49	X50	Y50	Z50	X51	Y51	Z51	X52	Y52	Z52	X53	Y53	Z53	X54	Y54	Z54	X55	Y55	Z55	X56	Y56	Z56	X57	Y57	Z57	X58	Y58	Z58	X59	Y59	Z59	

1366	6.825	-440.6999816894532	1689.941284179688	-804.482116699219	-440.054656982422	1684.050170898438	-664.5188598632814	-457.5220642089845	1511.284423828125	-725.0851440429689	-474.0354309082032	1217.277709960938	-720.7269897460939	-315.0771789550782	1476.546630859375	-735.7120361328126	-391.2722167968751	1520.505981445313	-872.9165039062502	-293.4646301269532	1424.424682617188	-952.6328125000002	-258.5046386718751	1417.0732421875	-918.551208496094	-237.2462005615235	1390.241577148438	-968.3216552734377	-196.8955078125001	1322.68212890625	-1006.349609375	-209.5207824707032	1271.111694335938	-968.1981201171877	40.62532424926759	1332.895629882813	-907.8839111328127	46.48582839965821	1297.423828125	-963.8026123046877	113.7858352661133	1350.453369140625	-907.2627563476565	-368.0597229003907	1508.325561523438	-596.0070190429689	-289.0377502441407	1376.471435546875	-487.2967224121095	-248.109115600586	1389.057861328125	-503.2225646972657	-229.2836151123047	1342.570922851563	-476.2030639648439	-160.8597412109375	1306.053955078125	-470.8928222656251	-183.5798645019532	1260.583984375	-498.1766662597657	63.96068954467775	1306.916870117188	-600.5515747070314	82.14762115478517	1284.476318359375	-537.7487792968751	143.505615234375	1315.484985351563	-607.8389282226564	-325.7671203613282	1037.128051757813	-853.631774902344	-300.9974975585938	1006.386962890625	-649.0643920898439	-472.4329223632814	1085.441162109375	-727.0070190429689	-481.3242797851564	1055.773315429688	-758.0916748046876	-471.0530700683595	1051.861083984375	-701.4308471679689	-250.9383544921876	837.2154541015627	-948.8472900390627	-170.0868072509766	810.6083984375002	-946.0655517578127	-141.3726196289063	841.9676513671877	-925.4702758789065	-149.349365234375	752.9035644531251	-947.3800048828127	-99.22031402587893	674.5679931640626	-935.131774902344	-47.87745666503907	537.3500976562501	-910.4292602539065	-114.026611328125	500.343231201172	-955.6902465820315	-75.4602508544922	493.3091125488282	-936.5115966796877	-83.28466033935548	413.8980102539064	-901.3699340820315	-168.167221069336	295.0676879882813	-918.5587158203127	-139.4185333251953	300.3789978027344	-838.5645751953127	-233.8505249023438	281.3829650878907	-859.435729980469	-32.73851776123048	189.3253936767578	-860.155944824219	-37.73882675170899	190.594711303711	-897.6243896484377	-92.40493011474611	176.4402770996094	-940.450378417969	-335.9913330078126	799.5266723632815	-589.9435424804689	-291.8542175292969	753.7814941406251	-599.0433959960939	-267.7055664062501	759.2958374023439	-622.5327148437501	-314.5504455566407	671.3967285156251	-601.7851562500001	-342.4468383789063	511.7254028320314	-641.8599853515626	-303.0008239746094	335.8800354003907	-713.5437011718751	-354.3626403808594	252.3671875000001	-661.5558471679689	-319.7651672363282	247.9068298339844	-694.9104614257814	-333.4476928710938	213.8775329589844	-739.1055297851564	-392.852752685547	126.2414321899414	-699.9446411132814	-379.3569335937501	134.5499725341797	-775.1986083984377	-455.3043518066407	106.0090789794922	-750.7021484375001	-257.3575134277344	54.28724288940431	-775.0705566406252	-253.0028228759766	60.60354232788087	-729.9337768554689	-292.3332214355469	50.52455902099611	-675.0855712890626	-310.5715942382813	1729.950317382813	-665.1929931640626	
1367	6.83	-440.7239685058595	1689.91015625	-804.6709594726565	-439.9714965820314	1683.915405273438	-664.6863403320314	-457.2263793945314	1511.155883789063	-725.3680419921876	-473.5101318359376	1217.209350585938	-721.1780395507814	-314.7645874023438	1476.506713867188	-735.8936767578126	-390.8057556152345	1520.042114257813	-873.4296875000002	-294.3779602050782	1421.661254882813	-953.2613525390627	-259.2828979492188	1413.783325195313	-919.3553466796877	-238.9561309814454	1386.408935546875	-969.2467041015627	-200.0359191894532	1317.803344726563	-1007.327880859375	-213.3442993164063	1266.336059570313	-968.6758422851565	37.63265991210938	1326.0546875	-909.1897583007815	42.91551208496094	1290.511840820313	-964.896911621094	110.9304351806641	1343.181274414063	-908.7238769531252	-367.7685241699219	1507.687744140625	-595.7485961914064	-290.7282409667969	1373.387939453125	-487.0760498046876	-249.2701110839844	1386.031127929688	-503.0882873535157	-231.4045715332032	1338.838256835938	-476.0225524902345	-163.5029296875	1301.66796875	-470.5229797363282	-187.0336608886719	1256.118530273438	-498.1998901367189	61.77769851684572	1298.88134765625	-599.3936767578126	77.30718994140626	1273.316162109375	-537.2250366210939	142.458969116211	1305.850219726563	-605.6665039062501	-324.9670715332032	1037.064697265625	-853.9530029296877	-300.5496826171876	1006.403259277344	-649.2332153320314	-471.8253173828126	1085.430786132813	-727.5009155273439	-480.5357666015626	1055.726318359375	-758.5526733398439	-470.5533142089845	1051.838012695313	-701.8853759765626	-250.5935516357422	836.5897216796877	-949.1245727539065	-169.7531280517578	809.6602172851565	-946.4471435546877	-140.9566802978516	840.724060058594	-925.6180419921877	-149.4480438232422	751.7797241210939	-947.791687011719	-100.1211853027344	673.3431396484376	-935.733337402344	-49.46312332153322	535.6207275390626	-911.131042480469	-115.9708480834961	499.3904113769532	-956.4031372070315	-77.34651184082033	491.8421936035157	-937.3304443359377	-85.89392852783205	412.4427795410157	-902.251403808594	-171.7942504882813	294.4638671875001	-919.7751464843752	-142.7680816650391	299.2320556640626	-839.6013793945315	-237.3489837646485	280.9356689453126	-860.6563110351565	-36.9971046447754	187.6423492431641	-861.499938964844	-41.52809524536134	188.9678802490235	-898.7203369140627	-96.97082519531253	175.3765258789063	-941.8093872070315	-335.6218566894532	799.6466064453127	-590.2671508789064	-291.5615234375001	753.7952270507814	-599.1204833984376	-267.2528991699219	759.2451782226564	-622.5545043945314	-314.4864196777344	671.4477539062501	-601.9027709960939	-342.5301513671876	511.714813232422	-641.9746093750001	-303.0041809082032	335.8435363769532	-713.5531616210939	-354.3934326171876	252.3395233154297	-661.6349487304689	-319.6354675292969	247.6910552978516	-694.8970947265626	-333.4761962890626	213.8847656250001	-739.1881103515626	-392.8901672363282	126.2690353393555	-699.9343872070314	-379.4437561035157	134.5376129150391	-775.3399047851565	-455.2467041015626	105.9356002807617	-750.7288818359376	-257.3415832519532	54.30900192260744	-775.089538574219	-253.0071105957032	60.5832977294922	-729.9386596679689	-292.4143676757813	50.55942535400392	-675.1231689453126	-310.6302795410157	1729.911254882813	-665.2945556640626	
1368	6.835	-440.7087707519532	1689.880981445313	-804.788024902344	-439.9163513183595	1683.864624023438	-664.7936401367189	-456.7623291015626	1511.097900390625	-725.6269531250001	-472.8780822753907	1217.1259765625	-721.5517578125001	-314.4420776367188	1476.359497070313	-736.0112304687501	-390.3979492187501	1519.660522460938	-873.9802246093752	-295.2655639648438	1419.031982421875	-954.0002441406252	-260.1531982421876	1410.590576171875	-920.2910156250002	-240.6634063720704	1382.533203125	-970.2277832031252	-203.3750000000001	1312.95947265625	-1008.252624511719	-217.2284240722657	1261.744018554688	-969.2937011718752	34.5044288635254	1319.71142578125	-910.5272216796877	39.09437561035157	1283.575561523438	-966.0808715820315	107.9421539306641	1335.789794921875	-910.2657470703127	-367.2900390625001	1507.134765625	-595.3502807617189	-292.3826293945313	1370.696044921875	-487.0741577148439	-251.2054443359376	1383.519653320313	-502.942596435547	-233.8169708251954	1335.127319335938	-475.7862854003907	-166.6920166015625	1296.428344726563	-470.3649902343751	-190.7272644042969	1251.78759765625	-498.1607055664064	59.25780868530275	1291.64404296875	-598.5512695312501	74.21194458007814	1265.564453125	-536.9486083984376	138.0107421875	1299.234741210938	-606.6518554687501	-324.2336120605469	1036.99365234375	-854.3681640625002	-300.1212768554688	1006.460083007813	-649.5303955078126	-471.2375793457032	1085.318969726563	-727.9670410156251	-479.8135986328126	1055.634887695313	-759.0860595703126	-469.9669189453126	1051.79052734375	-702.3775024414064	-250.264877319336	835.9988403320315	-949.409606933594	-169.7356719970703	808.600036621094	-946.5925903320315	-140.6820983886719	839.533630371094	-925.8277587890627	-149.5227355957032	750.7201538085939	-948.1751098632815	-100.3345794677735	671.8896484375001	-936.1781005859377	-51.12324523925783	533.9907836914064	-911.9512329101565	-117.4668197631836	498.0113830566407	-957.274353027344	-79.40960693359376	490.2437438964845	-938.191833496094	-88.48605346679689	410.993133544922	-903.1231079101565	-175.2396545410157	293.6045837402344	-920.9702148437502	-146.2668151855469	298.0303344726563	-840.7119140625002	-240.8830261230469	280.5191650390626	-861.8543701171877	-41.09766387939454	185.7279663085938	-862.6846313476565	-46.01281356811524	186.7489471435547	-899.8001708984377	-100.9910659790039	174.0158843994141	-943.136657714844	-335.3226013183594	799.7047119140627	-590.4099121093751	-291.2981872558594	753.7640991210939	-599.2374877929689	-287.4148254394532	749.0378417968751	-621.4279174804689	-314.5208740234376	670.3740844726564	-601.4498901367189	-342.5855102539063	511.7977600097657	-642.0868530273439	-302.9843750000001	335.8840942382813	-713.6171264648439	-354.3947448730469	252.4081420898438	-661.6691894531251	-319.7938232421876	247.7400817871094	-694.9169921875001	-333.4221496582032	213.9169921875001	-739.1193237304689	-392.8676757812501	126.2301330566407	-699.9271850585939	-378.6969604492188	134.4983978271485	-774.3757934570315	-455.2412109375001	106.0170135498047	-750.7203979492189	-257.3591918945313	54.36938476562501	-775.0548095703127	-253.0120697021485	60.57736206054689	-729.9409790039064	-292.4264831542969	50.57910919189455	-675.0887451171876	-310.6304626464844	1729.943725585938	-665.2097167968751	
1369	6.84	-440.6706848144532	1689.80908203125	-804.945007324219	-439.8409423828126	1683.737548828125	-664.9276733398439	-456.3973693847657	1511.030395507813	-725.8804321289064	-472.5301208496095	1216.942138671875	-721.9859008789064	-314.1439514160157	1476.241455078125	-736.1607666015626	-389.8414611816407	1519.231201171875	-874.6125488281252	-296.2401733398438	1416.323120117188	-954.701110839844	-260.8171386718751	1407.355224609375	-921.1485595703127	-242.4200744628907	1379.274658203125	-971.405212402344	-206.7135009765626	1308.1650390625	-1009.130859375	-221.307601928711	1257.411743164063	-969.8081665039065	31.35960960388184	1313.754638671875	-911.9965820312502	35.15965652465821	1276.576904296875	-967.1192016601565	105.3715286254883	1328.016845703125	-911.9336547851565	-366.7612304687501	1506.304321289063	-594.9987182617189	-293.9807434082032	1368.11376953125	-487.1685180664064	-251.8657531738282	1379.75927734375	-502.5498352050782	-235.9955749511719	1331.404418945313	-475.6941833496095	-169.4837188720703	1291.774047851563	-470.0721435546876	-194.0078430175782	1247.27197265625	-498.4672851562501	56.30440902709962	1284.230224609375	-598.2526245117189	72.20910644531251	1260.3623046875	-537.5930175781251	135.7766723632813	1291.541625976563	-605.9627685546876	-323.4448242187501	1036.925903320313	-854.6865234375002	-299.4760742187501	1006.520141601563	-649.8466186523439	-470.6530151367189	1085.225341796875	-728.3869018554689	-479.2136535644532	1055.620483398438	-759.5159912109376	-469.4064025878907	1051.758666992188	-702.8216552734376	-249.9187774658204	835.3885498046877	-949.7637939453127	-169.5092926025391	807.5780029296877	-946.9051513671877	-140.3468933105469	838.2871093750002	-925.992370605469	-149.6803741455078	749.5878906250001	-948.5700683593752	-100.8672790527344	670.4924316406251	-936.701354980469	-52.5873374938965	532.1848754882814	-912.6881103515627	-119.5562438964844	496.8665161132814	-958.1098632812502	-81.32390594482423	488.8640136718751	-938.8333740234377	-90.96817779541017	409.4120483398439	-904.0841064453127	-178.4001922607422	292.4779663085938	-922.101013183594	-150.0048370361328	296.8651123046876	-841.9320068359377	-244.5386047363282	279.9716186523438	-863.0925903320315	-45.46928405761719	183.9662475585938	-863.8845825195315	-50.02663803100587	185.3279876708985	-900.8682250976565	-105.3211364746094	172.8003540039063	-944.4378662109377	-334.9705505371094	799.816833496094	-590.6946411132814	-292.3649291992188	754.4406127929689	-600.0587768554689	-268.2030334472657	758.6451416015626	-623.2665405273439	-314.2749023437501	671.3759765625001	-602.0425415039064	-342.6842041015626	511.9401245117189	-642.2042846679689	-302.9956665039063	335.8849792480469	-713.6746826171876	-354.4351501464844	252.4618225097657	-661.7106933593751	-319.7737731933594	247.6924438476563	-694.9176025390626	-333.4212036132813	213.9093322753907	-739.1076660156251	-392.9008178710939	126.2828521728516	-699.9252929687501	-378.6027526855469	134.5031433105469	-774.2359619140627	-455.2105712890626	105.967529296875	-750.6997070312501	-257.3579406738282	54.37496185302736	-775.0838623046877	-253.0160064697266	60.60166168212892	-729.9344482421876	-292.4283447265626	50.5820999145508	-675.0798950195314	-310.6244201660157	1729.9365234375	-665.1583862304689	
